<?xml version="1.0" encoding="UTF-8"?>
<svg width="30px" height="40px" viewBox="0 0 30 40" version="1.1" xmlns="http://www.w3.org/2000/svg" xmlns:xlink="http://www.w3.org/1999/xlink">
    <!-- Generator: Sketch 63.1 (92452) - https://sketch.com -->
    <title>Shape</title>
    <desc>Created with Sketch.</desc>
    <g id="Design-System" stroke="none" stroke-width="1" fill="none" fill-rule="evenodd">
        <g id="roadmap6.0---functional-page-slices" transform="translate(-80.000000, -1189.000000)" fill="#B00C22" fill-rule="nonzero">
            <g id="Group-2" transform="translate(80.000000, 1189.000000)">
                <g id="File-Download-Icon---Regular-_-Font-Awesome-24">
                    <path d="M16.875,18.4429687 C16.875,17.925 16.4554687,17.5054687 15.9375,17.5054687 L14.0625,17.5054687 C13.5445312,17.5054687 13.125,17.925 13.125,18.4429687 L13.125,25.00625 L9.30625,25.00625 C8.46953125,25.00625 8.05234375,26.0195312 8.64609375,26.609375 L14.2953125,32.2164062 C14.6851563,32.603125 15.3140625,32.603125 15.7039062,32.2164062 L21.353125,26.609375 C21.946875,26.0203125 21.5296875,25.00625 20.6929688,25.00625 L16.875,25.00625 L16.875,18.4429687 Z M28.8929687,7.6546875 L22.3390625,1.1015625 C21.6359375,0.3984375 20.6828125,0 19.6914062,0 L3.74921875,0 C1.6796875,0.0078125 0,1.6875 0,3.75703125 L0,36.2507813 C0,38.3203125 1.6796875,40 3.74921875,40 L26.2445313,40 C28.3148438,40 30,38.3203125 30,36.2507813 L30,10.3101563 C30,9.31875 29.5960937,8.3578125 28.8929687,7.6546875 Z M19.9960938,4.06171875 L25.940625,10.0054687 L19.9960938,10.0054687 L19.9960938,4.06171875 L19.9960938,4.06171875 Z M26.25,36.2507813 L3.74921875,36.2507813 L3.74921875,3.75703125 L16.246875,3.75703125 L16.246875,11.8804688 C16.246875,12.9195313 17.0828125,13.7546875 18.121875,13.7546875 L26.25,13.7546875 L26.25,36.2507813 Z" id="Shape"></path>
                </g>
            </g>
        </g>
    </g>
</svg>