<svg width="100" height="100" viewBox="0 0 100 100" fill="none" xmlns="http://www.w3.org/2000/svg">
<path fill-rule="evenodd" clip-rule="evenodd" d="M50 68.001C58.2842 68.001 65 61.2853 65 53.001C65 44.7167 58.2842 38.001 50 38.001C41.7158 38.001 35 44.7167 35 53.001C35 61.2853 41.7158 68.001 50 68.001ZM79.792 25.001H83C89.6 25.001 95 30.399 95 37.001V76.001C95 82.601 89.6 88.001 83 88.001H17C10.4004 88.001 5 82.601 5 76.001V37.001C5 30.399 10.4004 25.001 17 25.001H20.208H22.1943C24.834 25.001 27.7236 22.967 28.6182 20.483L30.4033 15.518C31.2959 13.033 34.1885 11 36.8271 11H63.1729C65.8135 11 68.7031 13.034 69.5977 15.518L71.3818 20.483C72.276 22.968 75.166 25.001 77.807 25.001H79.792ZM27.5 53.001C27.5 65.429 37.5742 75.501 50 75.501C62.4277 75.501 72.5 65.429 72.5 53.001C72.5 40.573 62.4277 30.501 50 30.501C37.5742 30.501 27.5 40.573 27.5 53.001ZM82.5 42.501C83.881 42.501 85 41.382 85 40.001V37.501C85 36.12 83.881 35.001 82.5 35.001H80C78.619 35.001 77.5 36.12 77.5 37.501V40.001C77.5 41.382 78.619 42.501 80 42.501H82.5Z" fill="black"/>
</svg>
