<svg width="156" height="156" viewBox="0 0 156 156" fill="none" xmlns="http://www.w3.org/2000/svg">
<path fill-rule="evenodd" clip-rule="evenodd" d="M156 78C156 121.078 121.078 156 78 156C34.9218 156 0 121.078 0 78C0 34.9218 34.9218 0 78 0C121.078 0 156 34.9218 156 78ZM68.1977 105H57.8372C55.6628 105 54 103.337 54 101.163V53.8372C54 51.7907 55.6628 50 57.8372 50H68.1977C70.3721 50 72.0349 51.7907 72.0349 53.8372V101.291C72.0349 103.337 70.3721 105 68.1977 105ZM88.0232 105H98.3837C100.43 105 102.221 103.337 102.221 101.291V53.8372C102.221 51.7907 100.558 50 98.3837 50H88.0232C85.8488 50 84.186 51.7907 84.186 53.8372V101.163C84.186 103.337 85.8488 105 88.0232 105Z" fill="white"/>
</svg>
