<?xml version="1.0" encoding="UTF-8"?>
<svg width="16px" height="14px" viewBox="0 0 16 14" version="1.1" xmlns="http://www.w3.org/2000/svg" xmlns:xlink="http://www.w3.org/1999/xlink">
    <!-- Generator: Sketch 61.2 (89653) - https://sketch.com -->
    <title>Bars Icon _ Font Awesome-16</title>
    <desc>Created with Sketch.</desc>
    <g id="Symbols" stroke="none" stroke-width="1" fill="none" fill-rule="evenodd">
        <g id="Structure-/-Header-/-📱Mobile-/--default-white" transform="translate(-231.000000, -24.000000)" fill="#1C1C1C">
            <g id="Header">
                <g id="content" transform="translate(15.000000, 6.000000)">
                    <g id="Group" transform="translate(216.000000, 12.000000)">
                        <g id="Bars-Icon-_-Font-Awesome-16" transform="translate(0.000000, 6.000000)">
                            <path d="M15.5714286,1.94970986 L0.428571429,1.94970986 C0.191892857,1.94970986 0,1.76264217 0,1.53191489 L0,0.417794971 C0,0.187067698 0.191892857,0 0.428571429,0 L15.5714286,0 C15.8081071,0 16,0.187067698 16,0.417794971 L16,1.53191489 C16,1.76264217 15.8081071,1.94970986 15.5714286,1.94970986 Z M15.5714286,7.52030948 L0.428571429,7.52030948 C0.191892857,7.52030948 0,7.33324178 0,7.10251451 L0,5.98839458 C0,5.75766731 0.191892857,5.57059961 0.428571429,5.57059961 L15.5714286,5.57059961 C15.8081071,5.57059961 16,5.75766731 16,5.98839458 L16,7.10251451 C16,7.33324178 15.8081071,7.52030948 15.5714286,7.52030948 Z M15.5714286,13.0909091 L0.428571429,13.0909091 C0.191892857,13.0909091 0,12.9038414 0,12.6731141 L0,11.5589942 C0,11.3282669 0.191892857,11.1411992 0.428571429,11.1411992 L15.5714286,11.1411992 C15.8081071,11.1411992 16,11.3282669 16,11.5589942 L16,12.6731141 C16,12.9038414 15.8081071,13.0909091 15.5714286,13.0909091 Z" id="Shape"></path>
                        </g>
                    </g>
                </g>
            </g>
        </g>
    </g>
</svg>