<?xml version="1.0" encoding="UTF-8"?>
<svg width="25px" height="25px" viewBox="0 0 25 25" version="1.1" xmlns="http://www.w3.org/2000/svg" xmlns:xlink="http://www.w3.org/1999/xlink">
    <!-- Generator: Sketch 61.2 (89653) - https://sketch.com -->
    <title>facebook icon</title>
    <desc>Created with Sketch.</desc>
    <g id="Design-System" stroke="none" stroke-width="1" fill="none" fill-rule="evenodd">
        <g id="roadmap1.0.2" transform="translate(-918.000000, -1043.000000)" fill="#000000" fill-rule="nonzero">
            <g id="Footer" transform="translate(76.000000, 858.000000)">
                <g id="industry-links" transform="translate(842.000000, 24.000000)">
                    <path d="M22.3214286,161 L2.67857143,161 C1.19923728,161 0,162.199237 0,163.678571 L0,183.321429 C0,184.800763 1.19923728,186 2.67857143,186 L10.3376116,186 L10.3376116,177.500558 L6.82198661,177.500558 L6.82198661,173.5 L10.3376116,173.5 L10.3376116,170.450893 C10.3376116,166.982701 12.4023438,165.066964 15.5647321,165.066964 C17.0792411,165.066964 18.6629464,165.337054 18.6629464,165.337054 L18.6629464,168.741071 L16.9179688,168.741071 C15.1986607,168.741071 14.6623884,169.808036 14.6623884,170.902344 L14.6623884,173.5 L18.500558,173.5 L17.8867188,177.500558 L14.6623884,177.500558 L14.6623884,186 L22.3214286,186 C23.8007627,186 25,184.800763 25,183.321429 L25,163.678571 C25,162.199237 23.8007627,161 22.3214286,161 L22.3214286,161 Z" id="facebook-icon"></path>
                </g>
            </g>
        </g>
    </g>
</svg>