<?xml version="1.0" encoding="UTF-8"?>
<svg width="25px" height="25px" viewBox="0 0 25 25" version="1.1" xmlns="http://www.w3.org/2000/svg" xmlns:xlink="http://www.w3.org/1999/xlink">
    <!-- Generator: Sketch 64 (93537) - https://sketch.com -->
    <title>Combined Shape</title>
    <desc>Created with Sketch.</desc>
    <g id="Design-System" stroke="none" stroke-width="1" fill="none" fill-rule="evenodd">
        <g id="Core-structure-components" transform="translate(-974.000000, -3283.000000)" fill="#000000" fill-rule="nonzero">
            <path d="M996.321429,3283 C997.800763,3283 999,3284.19924 999,3285.67857 L999,3285.67857 L999,3305.32143 C999,3306.80076 997.800763,3308 996.321429,3308 L996.321429,3308 L976.678571,3308 C975.199237,3308 974,3306.80076 974,3305.32143 L974,3305.32143 L974,3285.67857 C974,3284.19924 975.199237,3283 976.678571,3283 L976.678571,3283 Z M980.500291,3292 L978.499709,3292 C978.223888,3292 978,3292.22951 978,3292.51288 L978,3292.51288 L978,3301.48723 C978,3301.77054 978.223888,3302 978.499709,3302 L978.499709,3302 L980.500291,3302 C980.776355,3302 981,3301.77054 981,3301.48723 L981,3301.48723 L981,3292.51288 C981,3292.22951 980.776355,3292 980.500291,3292 L980.500291,3292 Z M990.943122,3292 C989.512622,3292 988.300722,3292.51294 987.307193,3293.53862 C987.109685,3293.74275 986.965777,3293.6983 986.965777,3293.4222 L986.965777,3293.4222 L986.965777,3292.75607 C986.965777,3292.47997 986.727754,3292.25634 986.433885,3292.25634 L986.433885,3292.25634 L984.531892,3292.25634 C984.238253,3292.25634 984,3292.47997 984,3292.75607 L984,3292.75607 L984,3301.50038 C984,3301.77642 984.238311,3302 984.531892,3302 L984.531892,3302 L986.661246,3302 C986.954826,3302 987.193138,3301.77642 987.193138,3301.50038 L987.193138,3301.50038 L987.193138,3298.45932 C987.193138,3297.19252 987.274515,3296.32404 987.437212,3295.85431 C987.600255,3295.38458 987.901328,3295.00754 988.340661,3294.72272 C988.779995,3294.43812 989.276212,3294.29571 989.829371,3294.29571 C990.261212,3294.29571 990.630407,3294.39518 990.937243,3294.59456 C991.244137,3294.79366 991.465619,3295.07301 991.602094,3295.43255 C991.738798,3295.79209 991.806862,3296.5839 991.806862,3297.80819 L991.806862,3297.80819 L991.806862,3301.50038 C991.806862,3301.77642 992.044828,3302 992.338697,3302 L992.338697,3302 L994.468051,3302 C994.761689,3302 995,3301.77642 995,3301.50038 L995,3301.50038 L995,3296.54795 C995,3295.67237 994.940927,3294.99975 994.823644,3294.53007 C994.706362,3294.06033 994.497904,3293.64031 994.198733,3293.27026 C993.899504,3292.90021 993.458096,3292.5959 992.874853,3292.35759 C992.29138,3292.11918 991.647566,3292 990.943122,3292 Z M980.500291,3288 L978.499709,3288 C978.223888,3288 978,3288.24166 978,3288.54006 L978,3288.54006 L978,3290.45997 C978,3290.75831 978.223888,3291 978.499709,3291 L978.499709,3291 L980.500291,3291 C980.776355,3291 981,3290.75837 981,3290.45997 L981,3290.45997 L981,3288.54006 C981,3288.24166 980.776355,3288 980.500291,3288 L980.500291,3288 Z" id="Combined-Shape"></path>
        </g>
    </g>
</svg>