<?xml version="1.0" encoding="UTF-8"?>
<svg width="149px" height="61px" viewBox="0 0 149 61" version="1.1" xmlns="http://www.w3.org/2000/svg" xmlns:xlink="http://www.w3.org/1999/xlink">
    <!-- Generator: Sketch 61.2 (89653) - https://sketch.com -->
    <title>Group</title>
    <desc>Created with Sketch.</desc>
    <g id="Design-System" stroke="none" stroke-width="1" fill="none" fill-rule="evenodd">
        <g id="roadmap1.0.2" transform="translate(-118.000000, -888.000000)">
            <g id="Footer" transform="translate(76.000000, 858.000000)">
                <g id="Group" transform="translate(42.000000, 24.000000)">
                    <g id="Branding-/-BFI-Logo-/-White" transform="translate(0.000000, 6.000000)" fill="#FFFFFE">
                        <g id="BFI-Logo">
                            <path d="M13.9040816,0 C21.5816327,0 27.8069388,6.20126 27.8069388,13.85188 C27.8069388,14.64122 27.7255102,15.41043 27.5981633,16.16378 C29.1991837,15.69713 30.8883673,15.43483 32.6406122,15.43483 C42.5467347,15.43483 50.5757143,23.43559 50.5757143,33.30539 C50.5757143,35.87288 50.0222449,38.30861 49.0432653,40.51498 C49.1087755,40.51376 49.172449,40.50522 49.2379592,40.50522 C54.9073469,40.50522 59.5022449,45.08388 59.5022449,50.73248 C59.5022449,56.38047 54.9073469,60.95913 49.2379592,60.95913 C43.5691837,60.95913 38.9742857,56.38047 38.9742857,50.73248 C38.9742857,50.48238 38.9938776,50.23716 39.0116327,49.99133 C37.0291837,50.74285 34.8881633,51.1729 32.6406122,51.1729 C22.7363265,51.1729 14.7067347,43.17275 14.7067347,33.30539 C14.7067347,31.30032 15.0526531,29.38004 15.6636735,27.58115 C15.0863265,27.65374 14.5016327,27.70376 13.9040816,27.70376 C6.22408163,27.70376 0,21.50128 0,13.85188 C0,6.20126 6.22408163,0 13.9040816,0 Z M51.7506122,44.21585 L46.675102,44.21585 L46.675102,46.11112 L47.8512245,46.11112 L47.8512245,55.33249 L46.675102,55.33249 L46.675102,57.22898 L51.7506122,57.22898 L51.7506122,55.33249 L50.575102,55.33249 L50.575102,46.11112 L51.7506122,46.11112 L51.7506122,44.21585 Z M41.7716327,21.9478 L25.0389796,21.9478 L25.0389796,24.72696 L27.7940816,24.72696 L27.6581633,42.8891 L25.2777551,42.8891 L25.2777551,45.66765 L34.4246939,45.66765 L34.4246939,42.8891 L31.5012245,42.8891 L31.5685714,35.02803 L38.9834694,35.02803 L38.9834694,32.04635 L31.5685714,32.04635 L31.6371429,24.72696 L38.5408163,24.72696 L38.7446939,28.182 L41.9081633,28.182 L41.7716327,21.9478 Z M14.46,4.71591 L7.42285714,4.71591 L7.42285714,6.77771 L9.29020408,6.77771 L9.18979592,20.24712 L7.42285714,20.24712 L7.42285714,22.3077 L14.8126531,22.3077 C19.0757143,22.3077 21.1940816,20.37217 21.1940816,17.38256 C21.1940816,14.69368 19.0010204,13.0845 16.6304082,13.10951 L16.6304082,13.10951 L16.6304082,13.0601 C18.8736735,12.88442 20.1361224,11.07577 20.1361224,9.03837 C20.1361224,7.55668 19.3787755,6.3257 18.5473469,5.72119 C17.462449,4.91843 16.3022449,4.71591 14.46,4.71591 L14.46,4.71591 Z M14.5102653,14.417655 C16.351898,14.417655 18.0680204,15.322285 18.0680204,17.281605 C18.0680204,19.392205 16.402102,20.247425 14.3608776,20.247425 L14.3608776,20.247425 L12.0392449,20.247425 L12.089449,14.417655 Z M13.9817143,6.777283 C14.9398776,6.777283 15.4700816,6.828523 15.9739592,7.104853 C16.6804898,7.506843 17.1592653,8.185163 17.1592653,9.391743 C17.1592653,11.200393 15.9231429,12.205673 14.0068163,12.205673 L14.0068163,12.205673 L12.0898776,12.205673 L12.1406939,6.777283 Z" id="Combined-Shape"></path>
                        </g>
                    </g>
                    <g id="Branding-/-BFI-Logo---Film-Forever-/-White" transform="translate(67.000000, 0.000000)" fill="#FFFFFF">
                        <g id="Group" transform="translate(11.716535, 13.140000)">
                            <polygon id="Fill-3" points="8.4991748 24.882561 5.53562362 24.882561 5.60006457 16.030581 13.6280882 16.030581 13.6280882 13.838391 5.60006457 13.838391 5.66889921 4.881291 13.2275291 4.881291 13.3293165 8.437851 15.7941827 8.437851 15.6945921 2.684721 0.138694488 2.684721 0.138694488 4.881291 2.80347402 4.881291 2.67019843 24.882561 0.138694488 24.882561 0.138694488 27.079131 8.4991748 27.079131"></polygon>
                            <path d="M21.8041063,4.32233 C22.9354843,4.32233 23.869878,3.34632 23.869878,2.16372 C23.869878,0.97893 22.9354843,0 21.8041063,0 C20.6712638,0 19.7390669,0.97893 19.7390669,2.16372 C19.7390669,3.34632 20.6712638,4.32233 21.8041063,4.32233" id="Fill-4"></path>
                            <polygon id="Fill-5" points="20.6400685 24.882561 17.9071866 24.882561 17.9071866 27.079131 26.1007063 27.079131 26.1007063 24.882561 23.3700213 24.882561 23.5040291 9.098501 17.6421 9.098501 17.6421 11.294341 20.7718795 11.294341"></polygon>
                            <polygon id="Fill-6" points="31.103374 24.882561 28.6399724 24.882561 28.6399724 27.079131 36.5662087 27.079131 36.5662087 24.882561 33.8340591 24.882561 33.9666024 0.281561 27.9047598 0.281561 27.9047598 2.474481 31.2381142 2.474481"></polygon>
                            <path d="M67.0807535,24.882561 C67.0807535,22.093961 67.216226,18.506011 67.216226,15.437821 C67.216226,12.027261 66.0489661,8.680211 61.3191472,8.680211 C56.8895646,8.680211 55.8226276,12.128731 55.4916354,12.896691 L55.4242654,12.896691 C54.9914858,10.562151 53.3606906,8.680211 50.2279819,8.680211 C47.6305724,8.680211 44.8647378,10.352641 44.1331866,13.070431 L44.0665488,13.070431 L44.3323677,11.257841 C44.3990055,10.770931 44.4341551,9.797111 44.4341551,9.098501 L38.9354386,9.098501 L38.9354386,11.294341 L41.7020055,11.294341 L41.5687299,24.882561 L39.3696827,24.882561 L39.3696827,27.079131 L46.8294543,27.079131 L46.8294543,24.882561 L44.3323677,24.882561 L44.3990055,17.459921 C44.4341551,12.580601 47.0967378,11.049791 49.3294701,11.049791 C52.5266197,11.049791 53.059722,13.558071 53.059722,16.172201 C53.059722,19.060811 52.9601315,21.956721 52.9264465,24.882561 L50.7273992,24.882561 L50.7273992,27.079131 L58.2223205,27.079131 L58.2223205,24.882561 L55.7559898,24.882561 L55.8226276,17.459921 C55.8563126,12.580601 58.5225567,11.049791 60.7538244,11.049791 C63.9517063,11.049791 64.4833441,13.558071 64.4833441,16.172201 C64.4833441,19.060811 64.3844858,21.956721 64.3537299,24.882561 L62.1532181,24.882561 L62.1532181,27.079131 L69.6122575,27.079131 L69.6122575,24.882561 L67.0807535,24.882561 Z" id="Fill-7"></path>
                            <polygon id="Fill-8" points="7.67872441 33.038267 7.7365748 35.122417 9.18429921 35.122417 9.12498425 31.748357 0 31.748357 0 33.038267 1.56488976 33.038267 1.48653543 44.770097 0 44.770097 0 46.056357 4.90410236 46.056357 4.90410236 44.770097 3.16492913 44.770097 3.20520472 39.578337 7.91305512 39.578337 7.91305512 38.290617 3.20520472 38.290617 3.24548031 33.038267"></polygon>
                            <path d="M15.2489976,35.265205 C12.1821945,35.265205 10.3646669,37.718735 10.3646669,41.069435 C10.3646669,44.094555 12.1821945,46.302805 15.2489976,46.302805 C18.3143362,46.302805 20.1340606,43.848545 20.1340606,40.496385 C20.1340606,37.474185 18.3143362,35.265205 15.2489976,35.265205 M15.2489976,44.912885 C13.0997457,44.912885 12.046722,43.074015 12.046722,40.782545 C12.046722,38.493995 13.0997457,36.655125 15.2489976,36.655125 C17.3975173,36.655125 18.4542024,38.493995 18.4542024,40.782545 C18.4542024,43.074015 17.3975173,44.912885 15.2489976,44.912885" id="Fill-9"></path>
                            <path d="M24.9255378,38.800668 L24.8676874,38.800668 C24.9643488,37.941458 25.0807819,36.696808 25.0807819,36.082878 L25.0807819,35.511288 L21.7628055,35.511288 L21.7628055,36.799008 L23.479278,36.799008 L23.4023882,44.769878 L21.9744354,44.769878 L21.9744354,46.057598 L26.7049866,46.057598 L26.7049866,44.769878 L25.0046244,44.769878 L25.0807819,40.824958 C25.1210575,38.963458 26.0400732,36.838428 28.1102386,36.838428 C28.5027425,36.838428 28.9311283,36.898288 29.2050024,37.001218 L29.3609787,35.490848 C29.2826244,35.407628 28.4815063,35.325138 28.3445693,35.325138 C25.8445535,35.325138 25.3180417,37.247958 24.9255378,38.800668" id="Fill-10"></path>
                            <path d="M34.739674,35.265205 C31.6728709,35.265205 30.0669732,37.696105 30.0669732,40.805905 C30.0669732,44.480725 32.0404772,46.302805 35.2266425,46.302805 C36.2415874,46.302805 37.8042803,45.956055 38.5482803,45.566235 L38.6061307,44.115725 C37.7662016,44.563215 36.6736346,44.911425 35.5781386,44.911425 C32.7068551,44.911425 31.807611,43.091535 31.7490283,40.926355 L39.0952961,40.926355 C39.0952961,39.046605 38.7225638,35.265205 34.739674,35.265205 L34.739674,35.265205 Z M31.7490283,39.640825 C31.846422,37.901965 33.0202724,36.553655 34.739674,36.553655 C36.4173354,36.553655 37.4147055,37.982995 37.4147055,39.640825 L31.7490283,39.640825 Z" id="Fill-11"></path>
                            <path d="M46.4296276,36.799227 L47.7411472,36.799227 L45.3561,43.563407 C45.2587063,43.849567 45.2008559,44.156167 45.1422732,44.462037 L45.1019976,44.462037 C45.0441472,44.156167 44.9848323,43.849567 44.885974,43.563407 L42.5624386,36.799227 L43.7751,36.799227 L43.7751,35.511507 L39.634037,35.511507 L39.634037,36.799227 L40.765415,36.799227 L44.2628008,46.057087 L45.8621079,46.057087 L49.3419189,36.799227 L50.4564543,36.799227 L50.4564543,35.511507 L46.4296276,35.511507 L46.4296276,36.799227 Z" id="Fill-12"></path>
                            <path d="M56.0108976,35.265205 C52.9418976,35.265205 51.3381969,37.696105 51.3381969,40.805905 C51.3381969,44.480725 53.3146299,46.302805 56.4993307,46.302805 C57.5150079,46.302805 59.0762362,45.956055 59.8195039,45.566235 L59.876622,44.115725 C59.0381575,44.563215 57.944126,44.911425 56.8493622,44.911425 C53.9773465,44.911425 53.0810315,43.091535 53.020252,40.926355 L60.3665197,40.926355 C60.3665197,39.046605 59.9974488,35.265205 56.0108976,35.265205 L56.0108976,35.265205 Z M53.020252,39.640825 C53.1191102,37.901965 54.2900315,36.553655 56.0108976,36.553655 C57.6885591,36.553655 58.6866614,37.982995 58.6866614,39.640825 L53.020252,39.640825 Z" id="Fill-13"></path>
                            <path d="M65.1568984,38.800668 L65.1012449,38.800668 C65.197174,37.941458 65.3150717,36.696808 65.3150717,36.082878 L65.3150717,35.511288 L61.9941661,35.511288 L61.9941661,36.799008 L63.7121031,36.799008 L63.6337488,44.769878 L62.2087252,44.769878 L62.2087252,46.057598 L66.9378118,46.057598 L66.9378118,44.769878 L65.2389142,44.769878 L65.3150717,40.824958 C65.3553472,38.963458 66.2714339,36.838428 68.3445283,36.838428 C68.7326386,36.838428 69.1661504,36.898288 69.4385598,37.001218 L69.5923394,35.490848 C69.5161819,35.407628 68.7150638,35.325138 68.5795913,35.325138 C66.0766465,35.325138 65.5494024,37.247958 65.1568984,38.800668" id="Fill-14"></path>
                        </g>
                    </g>
                </g>
            </g>
        </g>
    </g>
</svg>