<?xml version="1.0" encoding="utf-8"?>
<!-- Generator: Adobe Illustrator 24.0.3, SVG Export Plug-In . SVG Version: 6.00 Build 0)  -->
<svg version="1.1" id="Layer_1" xmlns="http://www.w3.org/2000/svg" xmlns:xlink="http://www.w3.org/1999/xlink" x="0px" y="0px"
	 viewBox="0 0 89 61" style="enable-background:new 0 0 89 61;" xml:space="preserve">
<style type="text/css">
	.st0{fill:#FFFFFF;}
	.st1{fill-rule:evenodd;clip-rule:evenodd;fill:#FFFFFF;}
</style>
<title>Group 12</title>
<desc>Created with Sketch.</desc>
<g>
	<path d="M36,33.2c-0.2,1-0.5,2-0.7,2.9c0,0.2,0,0.4,0,0.6c1.3,7.8-3.8,15.1-11.6,16.3c-5.4,0.9-10.9-0.9-14.2-6.8
		c-0.9-1.7-1.5-3.5-2-5.3c-0.3-1.2-0.7-2.5-1.2-3.7c-0.7-1.7-1.9-2.8-3.7-3.3c-1.2-0.3-2.1-1.1-2.4-2.4c-0.2-1,0.2-1.8,0.8-2.5
		c1-1.1,2.4-1.6,3.9-1.7c2.8-0.3,5.3,0.7,7.4,2.5c0.1,0.1,0.3,0.3,0.4,0.4c1.1-2.9,2.2-5.7,3.3-8.5c-0.6-1.9-1.3-3.8-1.8-5.8
		c-0.4-1.4-0.6-2.9-0.2-4.4c0.2-0.6,0.4-1.3,0.8-1.8c1-1.5,3-1.8,4.3-0.5c0.8,0.8,1.4,1.8,2.1,2.7c0.2,0.3,0.3,0.6,0.4,0.9
		c0.5-0.5,0.9-0.9,1.4-1.3c0.6-0.5,1.4-0.9,2.2-0.8c1.6,0.1,2.8,1.3,2.8,3.1c0,1.1-0.2,2.2-0.5,3.2c-0.5,1.5-1.2,3-1.9,4.4
		c-0.2,0.4-0.3,0.8-0.5,1.1c0.4,0.9,0.8,1.8,1.1,2.7c1.3-0.4,2.5-0.5,3.6,0.5c1,0.9,1.2,2.2,1.2,3.4c0.1,0,0.1,0,0.1,0
		c2.2-1.2,4.3-0.2,4.7,2.3c0,0.2,0.1,0.4,0.1,0.6C36,32.6,36,32.9,36,33.2z M12.9,33.3c-0.5-0.5-0.9-1.1-1.3-1.5
		c-1.8-1.9-4-2.9-6.8-2.6c-0.9,0.1-1.7,0.4-2.4,1c-0.9,0.8-0.7,1.7,0.4,2.1c0.1,0,0.2,0.1,0.3,0.1c1.9,0.5,3.4,1.7,4.3,3.4
		c0.7,1.3,1.1,2.8,1.6,4.2c0.4,1.2,0.7,2.5,1.2,3.7c1.3,3,3.2,5.4,6.2,6.8c7.6,3.6,16.8-2,17.4-10.4c0-0.4,0-0.9,0-1.3
		c-0.9,1.5-2.1,2.5-3.9,2.3c-1.5-0.2-2.3-1.1-2.6-2.5c-0.1,0-0.1,0.1-0.2,0.1c-1,1-2.2,1.4-3.6,1c-1.4-0.5-2.1-1.6-2.3-3
		c-0.3-1.5,0-3,0.5-4.5c0.6-2,1.6-3.8,3.1-5.3c-0.3-0.7-0.6-1.3-0.9-2c-0.5,0.9-0.9,1.7-1.4,2.6c-0.4-0.2-0.8-0.4-1.2-0.6
		c0.9-1.9,1.8-3.7,2.6-5.5c0.8-1.8,1.6-3.6,2.3-5.5c0.2-0.6,0.2-1.3,0.1-1.9c-0.2-1-1.1-1.4-2-0.9c-0.4,0.2-0.9,0.6-1.2,0.9
		c-0.8,1-1.7,2-2.3,3.1c-2.9,5-5.5,10.2-6.7,16C13.7,33,13.3,33.1,12.9,33.3z M22.6,35.3c0.1,0.4,0.1,0.9,0.2,1.3c0.4,1.5,1.8,2,3,1
		c0.5-0.4,1-1,1.4-1.6c0.9-1.5,1.5-3.2,1.9-5c0.2-1,0.3-2,0-3c-0.3-1-1.1-1.4-2.1-1c-0.6,0.3-1.3,0.7-1.7,1.2
		C23.7,30.2,22.8,32.6,22.6,35.3z M34.3,32.7c-0.1-0.3-0.2-1-0.4-1.6c-0.3-0.7-1.1-0.9-1.8-0.5c-0.4,0.3-0.8,0.6-1.1,1
		c-1.1,1.4-1.8,3-2.1,4.8c-0.1,0.6-0.1,1.2,0,1.8c0.2,0.9,0.8,1.3,1.7,1.1c0.8-0.1,1.4-0.6,1.8-1.2C33.7,36.7,34.2,34.9,34.3,32.7z
		 M20.4,14.1c-0.7-1-1.3-2.2-2.1-3.2c-0.7-0.8-1.7-0.7-2.2,0.3c-0.3,0.5-0.5,1.2-0.5,1.8c-0.1,2.3,0.8,4.4,1.5,6.5
		C18.2,17.7,19.2,16,20.4,14.1z"/>
	<path d="M31.7,13.6c0,0.7-0.5,1.2-1.2,1.2c-0.7,0-1.2-0.5-1.2-1.2c0-0.7,0.6-1.2,1.2-1.2C31.2,12.3,31.7,12.9,31.7,13.6z
		 M31.5,13.6c0-0.5-0.4-1-0.9-1c-0.5,0-0.9,0.4-1,0.9c0,0.5,0.4,1,0.9,1C31,14.5,31.4,14.1,31.5,13.6z"/>
	<path class="st0" d="M12.9,33.3c0.4-0.1,0.8-0.3,1.1-0.4c1.2-5.8,3.8-11,6.7-16c0.6-1.1,1.5-2.1,2.3-3.1c0.3-0.4,0.8-0.7,1.2-0.9
		c0.9-0.5,1.8-0.1,2,0.9c0.1,0.6,0.1,1.3-0.1,1.9c-0.7,1.9-1.4,3.7-2.3,5.5c-0.8,1.8-1.7,3.6-2.6,5.5c0.4,0.2,0.8,0.4,1.2,0.6
		c0.4-0.8,0.9-1.6,1.4-2.6c0.3,0.7,0.6,1.3,0.9,2c-1.5,1.5-2.5,3.3-3.1,5.3c-0.5,1.5-0.7,2.9-0.5,4.5c0.2,1.4,0.9,2.5,2.3,3
		c1.4,0.5,2.6,0.1,3.6-1c0,0,0.1-0.1,0.2-0.1c0.3,1.4,1.1,2.4,2.6,2.5c1.8,0.2,3-0.8,3.9-2.3c0,0.4,0,0.9,0,1.3
		c-0.5,8.4-9.8,14-17.4,10.4c-3-1.4-4.9-3.8-6.2-6.8c-0.5-1.2-0.8-2.5-1.2-3.7c-0.5-1.4-1-2.8-1.6-4.2c-0.9-1.8-2.3-2.9-4.3-3.4
		c-0.1,0-0.2-0.1-0.3-0.1c-1.1-0.4-1.3-1.3-0.4-2.1c0.7-0.6,1.5-0.9,2.4-1c2.7-0.3,4.9,0.7,6.8,2.6C12.1,32.2,12.5,32.7,12.9,33.3z
		 M27.8,46.7c-0.2-0.5-0.4-1-0.6-1.5c-1.9,0.9-3.9,1.3-5.9,0.6c-2.1-0.7-3.3-2.2-4-4.2c-0.5,0.2-1,0.5-1.5,0.7
		C17.4,47.5,22.4,49.9,27.8,46.7z"/>
	<path class="st0" d="M22.6,35.3c0.2-2.7,1-5.1,2.7-7.1c0.4-0.5,1.1-1,1.7-1.2c0.9-0.4,1.8,0.1,2.1,1c0.3,1,0.2,2,0,3
		c-0.4,1.7-1,3.4-1.9,5c-0.4,0.6-0.8,1.2-1.4,1.6c-1.2,1-2.6,0.5-3-1C22.7,36.2,22.7,35.7,22.6,35.3z M23.6,35.3
		c0,0.8,0.6,1.4,1.4,1.4c0.8,0,1.4-0.6,1.4-1.4c0-0.8-0.6-1.4-1.4-1.4C24.2,33.9,23.6,34.5,23.6,35.3z"/>
	<path class="st0" d="M34.3,32.7c-0.1,2.2-0.7,3.9-1.8,5.5c-0.5,0.6-1,1.1-1.8,1.2c-0.9,0.1-1.6-0.3-1.7-1.1c-0.1-0.6-0.1-1.2,0-1.8
		c0.3-1.8,1-3.4,2.1-4.8c0.3-0.4,0.7-0.8,1.1-1c0.7-0.4,1.4-0.3,1.8,0.5C34.1,31.7,34.2,32.4,34.3,32.7z M29.7,36.9
		c0,0.7,0.5,1.3,1.2,1.3c0.7,0,1.3-0.6,1.2-1.3c0-0.7-0.5-1.2-1.2-1.2C30.3,35.7,29.8,36.2,29.7,36.9z"/>
	<path class="st0" d="M20.4,14.1c-1.2,1.9-2.2,3.6-3.2,5.3c-0.8-2.1-1.6-4.2-1.5-6.5c0-0.6,0.2-1.2,0.5-1.8c0.5-0.9,1.5-1.1,2.2-0.3
		C19,11.9,19.7,13.1,20.4,14.1z"/>
	<path d="M27.8,46.7c-5.4,3.2-10.5,0.8-12-4.4c0.5-0.2,1-0.4,1.5-0.7c0.7,2,2,3.5,4,4.2c2,0.7,4,0.3,5.9-0.6
		C27.4,45.7,27.6,46.2,27.8,46.7z"/>
	<path d="M23.6,35.3c0-0.8,0.6-1.4,1.4-1.4c0.8,0,1.4,0.6,1.4,1.4c0,0.7-0.6,1.4-1.4,1.4C24.3,36.7,23.6,36,23.6,35.3z"/>
	<path d="M29.7,36.9c0-0.7,0.6-1.2,1.3-1.2c0.7,0,1.2,0.6,1.2,1.2c0,0.7-0.6,1.3-1.2,1.3C30.3,38.2,29.7,37.6,29.7,36.9z"/>
	<path d="M30.2,12.9c0.3,0.1,0.6,0.1,0.8,0.2c0,0.4,0,0.7-0.1,1c0,0-0.1,0.1-0.1,0.1c-0.1-0.2-0.2-0.4-0.3-0.6
		c-0.1,0.3-0.1,0.4-0.2,0.5c0,0-0.1,0-0.1,0C30.2,13.8,30.2,13.4,30.2,12.9z M30.7,13.4c0-0.1,0-0.1,0-0.2c-0.1,0-0.2,0-0.3,0
		c0,0.1,0,0.2,0,0.2C30.5,13.4,30.6,13.4,30.7,13.4z"/>
</g>
<rect id="Rectangle" x="44" y="0" class="st1" width="2" height="61"/>
<path id="_x32_5" class="st0" d="M65.4,44.6v-6.5h-11v-0.2c3.2-2.9,5.3-4.9,6.3-5.9c1-1,1.8-2,2.4-3s1-1.9,1.3-2.9
	c0.3-1,0.4-2,0.4-3.2c0-1.5-0.4-2.9-1.2-4.1c-0.8-1.2-2-2.2-3.4-2.8c-1.5-0.7-3.2-1-5-1c-1.5,0-2.8,0.2-4.1,0.5
	c-1.2,0.3-2.3,0.7-3.3,1.3s-2.3,1.5-3.8,2.9l0,0l4.3,5.1c1.2-1,2.2-1.8,3.2-2.3c0.9-0.5,1.9-0.8,2.8-0.8c0.9,0,1.6,0.2,2.1,0.7
	s0.7,1,0.7,1.8c0,0.6-0.1,1.2-0.4,1.8c-0.2,0.6-0.7,1.2-1.3,2c-0.6,0.8-2,2.2-4,4.4l0,0l-7.1,7.2v5.2H65.4z M77.2,45
	c4,0,6.9-0.9,8.9-2.6c2-1.7,2.9-4.2,2.9-7.5c0-1.9-0.4-3.5-1.1-4.9c-0.7-1.4-1.8-2.5-3.1-3.3c-1.3-0.8-2.9-1.2-4.5-1.2
	c-0.4,0-0.8,0-1.2,0s-1.2,0.1-2.2,0.3l0,0l0.4-3.9H87v-6.6H70.5l-1.1,15.4l2.9,1.4c1.4-0.5,2.8-0.7,4-0.7c1.6,0,2.8,0.3,3.6,0.9
	c0.8,0.6,1.2,1.5,1.2,2.6c0,1.2-0.4,2.1-1.2,2.7c-0.8,0.6-1.9,0.9-3.4,0.9c-1,0-2.3-0.2-3.8-0.5S70,37.5,68.9,37l0,0v6.5
	C71,44.5,73.8,45,77.2,45z"/>
</svg>
