<?xml version="1.0" encoding="UTF-8"?>
<svg width="25px" height="25px" viewBox="0 0 25 25" version="1.1" xmlns="http://www.w3.org/2000/svg" xmlns:xlink="http://www.w3.org/1999/xlink">
    <!-- Generator: Sketch 61.2 (89653) - https://sketch.com -->
    <title>youtube icon</title>
    <desc>Created with Sketch.</desc>
    <g id="Design-System" stroke="none" stroke-width="1" fill="none" fill-rule="evenodd">
        <g id="roadmap1.0.2" transform="translate(-918.000000, -981.000000)" fill="#FFFFFF" fill-rule="nonzero">
            <g id="Footer" transform="translate(76.000000, 858.000000)">
                <g id="industry-links" transform="translate(842.000000, 24.000000)">
                    <path d="M10.4241071,108.492188 L15.7366071,111.511161 L10.4241071,114.530134 L10.4241071,108.492188 Z M25,101.678571 L25,121.321429 C25,122.800223 23.8002232,124 22.3214286,124 L2.67857143,124 C1.19977679,124 0,122.800223 0,121.321429 L0,101.678571 C0,100.199777 1.19977679,99 2.67857143,99 L22.3214286,99 C23.8002232,99 25,100.199777 25,101.678571 Z M22.65625,111.516741 C22.65625,111.516741 22.65625,108.190848 22.2321429,106.594866 C21.9977679,105.71317 21.3113839,105.021205 20.4352679,104.78683 C18.8560268,104.357143 12.5,104.357143 12.5,104.357143 C12.5,104.357143 6.14397321,104.357143 4.56473214,104.78683 C3.68861607,105.021205 3.00223214,105.71317 2.76785714,106.594866 C2.34375,108.185268 2.34375,111.516741 2.34375,111.516741 C2.34375,111.516741 2.34375,114.842634 2.76785714,116.438616 C3.00223214,117.320312 3.68861607,117.984375 4.56473214,118.21875 C6.14397321,118.642857 12.5,118.642857 12.5,118.642857 C12.5,118.642857 18.8560268,118.642857 20.4352679,118.21317 C21.3113839,117.978795 21.9977679,117.314732 22.2321429,116.433036 C22.65625,114.842634 22.65625,111.516741 22.65625,111.516741 L22.65625,111.516741 Z" id="youtube-icon"></path>
                </g>
            </g>
        </g>
    </g>
</svg>