<svg width="166" height="78" viewBox="0 0 166 78" fill="none" xmlns="http://www.w3.org/2000/svg">
<path d="M83.4303 24.6977H79.5898V21.7939H90.5672V24.6977H86.778V34.3127H83.4303V24.6977Z" fill="black"/>
<path d="M91.3674 21.7939H94.651V26.3643H99.2532V21.7939H102.562V34.2935H99.2532V29.3962H94.651V34.2935H91.3418L91.3674 21.7939Z" fill="black"/>
<path d="M104.089 21.7939H113.05V24.6592H107.385V26.5822H112.039V29.2809H107.385V31.4154H113.447V34.2871H104.089V21.7939Z" fill="black"/>
<path d="M79.5986 37.0371H82.607L87.3948 44.0112V37.0371H90.672V49.5367H87.8429L82.8694 42.3638V49.5367H79.5986V37.0371Z" fill="black"/>
<path d="M95.6485 37.0361H99.4505L103.862 49.5368H100.292L99.4892 46.972H95.2914L94.466 49.5368H91.0664L95.6485 37.0361V37.0361ZM98.8093 44.5379L97.4313 39.9405L95.9918 44.5379H98.8116H98.8093Z" fill="black"/>
<path d="M105.398 39.9409H101.558V37.0371H112.573V39.9409H108.733V49.5559H105.385L105.398 39.9409Z" fill="black"/>
<path d="M113.335 37.0371H116.644V49.5367H113.335V37.0371Z" fill="black"/>
<path d="M124.337 49.8373C123.45 49.8465 122.568 49.6767 121.744 49.3441C120.975 49.0272 120.275 48.5611 119.684 47.9722C119.098 47.3791 118.636 46.673 118.327 45.896C117.678 44.2005 117.678 42.3219 118.327 40.6264C118.636 39.8495 119.098 39.1434 119.684 38.5503C120.272 37.9606 120.973 37.4977 121.744 37.1898C122.57 36.8595 123.45 36.6943 124.337 36.7035C125.228 36.6943 126.11 36.8595 126.936 37.1898C127.708 37.493 128.408 37.9565 128.992 38.5503C129.576 39.1467 130.035 39.851 130.342 40.6264C130.99 42.3241 130.99 44.1984 130.342 45.896C130.036 46.6734 129.576 47.3799 128.991 47.9726C128.406 48.5653 127.707 49.0319 126.938 49.3441C126.111 49.6776 125.227 49.8451 124.337 49.8373V49.8373ZM124.337 46.7288C124.78 46.7311 125.217 46.637 125.617 46.4535C125.988 46.2814 126.315 46.0291 126.579 45.7171C126.852 45.3913 127.056 45.0128 127.179 44.6067C127.455 43.729 127.455 42.7865 127.179 41.9088C127.053 41.5053 126.849 41.1311 126.579 40.8077C126.316 40.4934 125.987 40.2413 125.617 40.069C125.207 39.8862 124.763 39.7918 124.315 39.7918C123.867 39.7918 123.423 39.8862 123.013 40.069C122.643 40.2406 122.315 40.492 122.051 40.8054C121.784 41.1306 121.58 41.5043 121.451 41.9066C121.174 42.785 121.174 43.7283 121.451 44.6067C121.578 45.0128 121.783 45.3867 122.051 45.7171C122.315 46.0291 122.643 46.2814 123.013 46.4535C123.427 46.6485 123.88 46.7471 124.337 46.7426V46.7288Z" fill="black"/>
<path d="M132.025 37.0371H135.04L139.828 44.0112V37.0371H143.105V49.5367H140.276L135.303 42.3638V49.5367H132.025V37.0371Z" fill="black"/>
<path d="M148.116 37.0361H151.918L156.337 49.5368H152.757L151.957 46.972H147.777L146.952 49.5368H143.527L148.116 37.0361ZM151.318 44.5379L149.929 39.9405L148.489 44.5379H151.318Z" fill="black"/>
<path d="M156.771 37.0371H160.08V46.6137H165.841V49.5367H156.752L156.771 37.0371Z" fill="black"/>
<path d="M79.5898 52.2861H82.9055V61.8627H88.6662V64.7857H79.5898V52.2861Z" fill="black"/>
<path d="M95.0843 65.088C94.1952 65.0972 93.3129 64.9274 92.4919 64.5902C91.7231 64.2736 91.0226 63.8092 90.4295 63.2229C89.8442 62.627 89.3833 61.9187 89.0742 61.1399C88.4258 59.4466 88.4258 57.5704 89.0742 55.8772C89.3792 55.0976 89.8401 54.3898 90.4281 53.7977C91.0161 53.2057 91.7186 52.7422 92.4919 52.436C94.1619 51.787 96.0112 51.787 97.6811 52.436C98.4634 52.7434 99.1729 53.2045 99.7687 53.7941C100.349 54.3929 100.806 55.1017 101.113 55.8772C101.761 57.5704 101.761 59.4466 101.113 61.1399C100.812 61.921 100.355 62.6308 99.7687 63.2247C99.1828 63.8185 98.4813 64.2835 97.7084 64.5902C96.8754 64.9313 95.9832 65.1006 95.0843 65.088V65.088ZM95.0843 61.9749C95.5092 61.9883 95.9315 61.9042 96.3195 61.729C96.7075 61.5537 97.051 61.2919 97.3241 60.9632C97.5925 60.6352 97.7971 60.2612 97.9245 59.8574C98.1973 58.9788 98.1973 58.0382 97.9245 57.1596C97.7968 56.7568 97.593 56.3828 97.3241 56.0584C97.0618 55.7424 96.7343 55.488 96.3645 55.3128C95.9539 55.1353 95.5117 55.0437 95.0649 55.0437C94.6182 55.0437 94.176 55.1353 93.7654 55.3128C93.3924 55.4872 93.0604 55.7418 92.7989 56.0584C92.5291 56.3814 92.3265 56.7559 92.2032 57.1596C91.9217 58.0365 91.9217 58.9806 92.2032 59.8574C92.3259 60.2612 92.5283 60.6374 92.7989 60.9609C93.0604 61.2775 93.3902 61.5322 93.7654 61.7042C94.1792 61.8923 94.6295 61.9841 95.0843 61.9749V61.9749Z" fill="black"/>
<path d="M105.317 55.1889H101.477V52.2852H112.454V55.1889H108.665V64.804H105.317V55.1889Z" fill="black"/>
<path d="M116.936 55.1889H113.096V52.2852H124.092V55.1889H120.29V64.804H116.943L116.936 55.1889Z" fill="black"/>
<path d="M124.876 52.2861H133.837V55.1514H128.166V57.0744H132.826V59.7731H128.166V61.9076H134.228V64.7793H124.876V52.2861Z" fill="black"/>
<path d="M135.32 52.2855H140.485C141.103 52.2787 141.719 52.3658 142.311 52.5471C142.824 52.7054 143.3 52.9692 143.704 53.3225C144.096 53.6781 144.403 54.1162 144.6 54.6072C144.821 55.1715 144.928 55.7749 144.914 56.3805C144.932 57.133 144.748 57.874 144.378 58.5278C144.022 59.1232 143.527 59.6211 142.936 59.9777L145.605 64.777H142.054L139.941 60.5214H138.558V64.777H135.32V52.2855V52.2855ZM140.164 57.9245C140.361 57.937 140.559 57.9073 140.744 57.8373C140.929 57.7673 141.097 57.6586 141.237 57.5184C141.377 57.379 141.485 57.2111 141.556 57.0259C141.626 56.8408 141.656 56.6426 141.644 56.4448C141.666 56.0334 141.525 55.6302 141.253 55.3229C141.107 55.1795 140.934 55.0683 140.743 54.9964C140.552 54.9245 140.349 54.8935 140.146 54.9054H138.558V57.9245H140.166H140.164Z" fill="black"/>
<path d="M148.77 59.7987L144.334 52.2861H148.13L150.562 56.7732L152.847 52.2861H156.534L152.053 59.7795V64.7857H148.744L148.77 59.7987Z" fill="black"/>
<path d="M160.221 58.5435C159.802 58.5435 159.386 58.4609 159 58.3003C158.634 58.1534 158.301 57.9351 158.019 57.658C157.746 57.3705 157.528 57.0335 157.378 56.6646C157.218 56.2768 157.136 55.8608 157.136 55.4407C157.136 55.0206 157.218 54.6046 157.378 54.2168C157.614 53.6477 158.013 53.1625 158.524 52.8234C159.035 52.4842 159.634 52.3064 160.246 52.3127C161.065 52.3092 161.854 52.6266 162.447 53.1982C162.72 53.4872 162.936 53.8245 163.088 54.1893C163.406 54.9761 163.406 55.8525 163.088 56.6394C162.936 57.0064 162.717 57.3414 162.449 57.6327C161.865 58.22 161.069 58.5504 160.241 58.5435H160.221V58.5435ZM160.221 57.9401C160.546 57.9445 160.869 57.8826 161.171 57.758C161.472 57.6334 161.745 57.4488 161.974 57.2152C162.427 56.7305 162.675 56.0871 162.665 55.4212C162.673 55.0847 162.616 54.7499 162.499 54.4347C162.381 54.1366 162.21 53.8628 161.994 53.6272C161.773 53.4007 161.511 53.2199 161.221 53.095C160.917 52.9672 160.59 52.9014 160.26 52.9014C159.931 52.9014 159.604 52.9672 159.3 53.095C158.708 53.3473 158.245 53.8291 158.019 54.4347C157.895 54.7485 157.832 55.0834 157.833 55.4212C157.833 55.7607 157.894 56.098 158.019 56.4145C158.134 56.7126 158.307 56.9843 158.528 57.2133C158.749 57.4424 159.014 57.624 159.307 57.7474C159.595 57.8713 159.907 57.9355 160.221 57.9401V57.9401ZM159.141 53.7924H160.355C160.528 53.7874 160.7 53.8162 160.862 53.8772C160.992 53.9254 161.112 54.0034 161.214 54.0998C161.297 54.1805 161.363 54.2771 161.408 54.3839C161.453 54.4907 161.476 54.6055 161.476 54.7215C161.479 54.9163 161.425 55.1077 161.321 55.2721C161.212 55.4457 161.048 55.5774 160.855 55.646L161.628 56.9284H160.946L160.241 55.7034H159.741V56.9973H159.141V53.7924V53.7924ZM160.33 55.2537C160.402 55.2604 160.475 55.252 160.545 55.2291C160.614 55.2063 160.678 55.1693 160.732 55.1207C160.818 55.0214 160.862 54.8921 160.855 54.7605C160.86 54.695 160.851 54.6293 160.827 54.5681C160.803 54.5069 160.766 54.4519 160.719 54.4072C160.594 54.3192 160.443 54.2786 160.291 54.2925H159.741V55.256H160.332L160.33 55.2537Z" fill="black"/>
<path d="M42.1597 1.40653C42.3416 1.06241 42.6372 1.06241 42.7896 1.40653L45.773 7.02711C46.0004 7.4217 46.3211 7.75206 46.7054 7.98606L52.1493 11.0648C52.4767 11.2483 52.4767 11.5557 52.1493 11.7186L46.7054 14.7927C46.3219 15.0311 46.0019 15.3603 45.773 15.7516L42.7896 21.3768C42.6145 21.7163 42.3189 21.7163 42.1597 21.3768L39.1831 15.7516C38.9567 15.3758 38.6488 15.0566 38.2826 14.8179L32.8364 11.7461C32.509 11.558 32.509 11.2506 32.8364 11.0946L38.2848 7.98835C38.6669 7.75206 38.9875 7.4217 39.2172 7.02711L42.1597 1.40653ZM59.8648 23.609C60.0468 23.2649 60.3424 23.2649 60.5266 23.609L63.5055 29.2296C63.7329 29.6242 64.0535 29.9545 64.4355 30.1931L69.8794 33.2672C70.2137 33.4576 70.2137 33.7651 69.8794 33.9211L64.4355 36.9952C64.0518 37.2362 63.7318 37.5676 63.5032 37.961L60.5266 43.5816C60.3447 43.9257 60.049 43.9257 59.8671 43.5816L56.8882 37.961C56.6596 37.5676 56.3396 37.2362 55.9559 36.9952L50.512 33.9211C50.18 33.7375 50.18 33.4324 50.512 33.2695L55.9582 30.1954C56.3379 29.9545 56.6585 29.6242 56.8905 29.2296L59.8648 23.609Z" fill="black"/>
<path d="M53.8297 44.4211C53.0682 44.4662 52.3436 44.7675 51.7717 45.2768C51.9787 42.7831 51.085 40.9364 49.4432 40.2986C48.4319 39.9479 47.3261 39.9988 46.3506 40.4408L45.0112 37.0914C46.271 33.96 48.4108 30.1494 48.4108 27.0225C48.4108 24.6023 47.2283 22.8197 44.968 22.8197C43.5968 22.8197 42.0801 23.9897 40.934 25.4947C39.3536 21.8677 37.7118 20.1562 35.8971 20.1562C33.0842 20.1562 31.9131 23.0744 31.9131 25.5681C31.9131 27.6305 32.4612 31.0418 34.5964 35.8847C33.1042 39.263 31.8193 42.7306 30.7489 46.2679C29.721 45.1273 28.4724 44.2111 27.0801 43.5758C25.6878 42.9406 24.1814 42.5998 22.6535 42.5744C20.9993 42.5364 19.373 43.0086 17.9919 43.9279C17.4455 44.2696 16.9887 44.739 16.6601 45.2964C16.3316 45.8539 16.141 46.483 16.1045 47.1305C16.1045 48.9061 17.2733 50.1197 19.0561 50.6175C22.1396 51.471 23.5176 54.0289 24.6819 59.0989C26.8104 68.2364 32.2997 73.6872 40.7316 73.6872C49.6683 73.6688 56.9064 66.1602 56.9223 56.8943C56.9182 55.6765 56.8041 54.4617 56.5812 53.265C56.845 52.5721 57.0542 51.8587 57.2088 51.1314C57.966 47.2154 56.5243 44.4418 53.7797 44.4418L53.8297 44.4211ZM48.686 42.3014C50.1231 42.985 50.23 46.0798 48.7883 49.7802C47.624 53.3361 45.9436 55.5155 44.3836 55.5224C43.1238 55.5224 42.1165 54.6231 42.1165 52.2005C42.1165 47.6329 45.723 40.8836 48.6882 42.3014H48.686ZM33.8847 25.5864C33.8847 24.093 34.5146 22.3242 35.879 22.3242C36.834 22.3242 38.0006 23.8911 39.3718 27.0225C37.9756 28.9634 36.7567 31.0372 35.7402 33.2167C34.4827 29.8672 33.8847 27.3437 33.8847 25.6002V25.5864ZM40.8021 71.533C33.6004 71.533 28.6591 66.3437 26.7399 58.585C25.4369 53.2466 23.7882 49.6884 19.6019 48.5528C19.1243 48.4106 18.2307 48.0573 18.2307 47.1305C18.2307 46.2037 19.8111 44.7102 22.6945 44.7102C26.11 44.7102 28.9365 46.8827 30.8762 49.7733L32.3429 49.2067C32.5567 46.2885 33.9916 42.3083 36.5043 36.7404C39.6492 29.6929 42.8646 24.8959 44.993 24.9532C45.6729 24.9532 46.4779 25.809 46.4779 27.0225C46.4779 29.9407 43.9993 34.3064 41.8345 39.0644C41.6139 39.5461 40.6247 41.799 40.6247 41.799L42.0414 42.4505C42.5076 41.6407 43.4695 39.6907 43.5968 39.3649L44.6588 41.8058C42.4007 43.7948 40.411 48.4886 40.411 52.1959C40.411 54.8961 41.5753 56.5868 43.2944 57.1558C44.0585 57.4057 44.8816 57.4044 45.645 57.1521C46.4084 56.8998 47.0727 56.4095 47.5422 55.7518C47.7104 57.6077 49.2476 59.0025 51.0418 58.936C52.9292 58.936 54.189 57.8119 55.094 55.8963C55.2504 59.9264 53.8264 63.8564 51.1305 66.8347C49.8187 68.2857 48.2284 69.4528 46.4562 70.2651C44.6839 71.0775 42.7665 71.5182 40.8203 71.5605L40.8021 71.533ZM55.4351 50.8493C54.9508 53.8454 53.1998 57.1672 51.0282 57.1672C48.9702 57.1672 49.0953 54.3409 49.5751 52.5997C50.33 49.5393 52.338 46.3413 53.8433 46.3413C55.2145 46.3413 55.8308 48.2592 55.4215 50.8171L55.4351 50.8493ZM48.1334 65.8275C42.0232 69.4293 36.3451 67.1352 34.1985 60.5671L35.9722 59.7068C37.7231 65.0521 42.7532 66.5135 47.4103 64.0014L48.1334 65.8275ZM46.4666 52.1225C46.4696 52.3364 46.4308 52.5488 46.3524 52.7476C46.274 52.9464 46.1576 53.1276 46.0098 53.281C45.862 53.4344 45.6857 53.5569 45.4909 53.6415C45.2962 53.7262 45.0868 53.7713 44.8748 53.7743C44.6628 53.7713 44.4534 53.7262 44.2586 53.6415C44.0639 53.5569 43.8876 53.4344 43.7398 53.281C43.5919 53.1276 43.4755 52.9464 43.3972 52.7476C43.3188 52.5488 43.28 52.3364 43.283 52.1225C43.28 51.9086 43.3188 51.6962 43.3972 51.4974C43.4755 51.2986 43.5919 51.1173 43.7398 50.964C43.8876 50.8106 44.0639 50.6881 44.2586 50.6034C44.4534 50.5188 44.6628 50.4737 44.8748 50.4707C45.7525 50.4707 46.4666 51.2117 46.4666 52.1225ZM53.1816 54.1275C53.1865 54.5166 53.0381 54.8916 52.769 55.1704C52.5 55.4491 52.1323 55.6087 51.7467 55.6141C51.3611 55.6087 50.9934 55.4491 50.7244 55.1704C50.4554 54.8916 50.307 54.5166 50.3119 54.1275C50.3064 53.7385 50.4542 53.3632 50.7228 53.0841C50.9914 52.8049 51.3589 52.6447 51.7445 52.6387C51.9358 52.6411 52.1247 52.6815 52.3006 52.7576C52.4764 52.8338 52.6356 52.9442 52.7691 53.0825C52.9025 53.2207 53.0077 53.3842 53.0785 53.5636C53.1493 53.7429 53.1843 53.9345 53.1816 54.1275" fill="black"/>
<path d="M19.1423 50.5371C17.3049 50.0209 16.2544 48.7821 16.2544 47.1372C16.2866 46.507 16.4688 45.8939 16.7854 45.3496C17.102 44.8054 17.5438 44.346 18.0735 44.0103C19.447 43.095 21.0524 42.627 22.6874 42.666C24.3309 42.6711 25.9494 43.0722 27.4082 43.836L27.5719 43.5286C28.0517 42.7096 28.718 42.0236 29.5093 41.5327L33.2478 39.4427C33.7025 38.2934 34.1733 37.1647 34.6963 35.9511V35.9121C33.6865 33.6957 32.9165 31.3759 32.3996 28.993L29.5025 27.355C28.7079 26.8525 28.0437 26.1659 27.5651 25.3523L21.3572 13.6064C20.9819 12.8929 20.3634 12.8929 19.9859 13.6064L13.7871 25.3523C13.3078 26.1662 12.6428 26.8528 11.8474 27.355L0.518466 33.7648C-0.172822 34.1548 -0.172822 34.788 0.518466 35.1803L11.8474 41.5923C12.641 42.0856 13.305 42.7715 13.7871 43.5882L19.9859 55.3043C20.3634 56.0223 20.9819 56.0223 21.3594 55.3043L22.5555 53.0446C21.7633 51.8141 20.5486 50.922 19.1446 50.5394L19.1423 50.5371ZM25.9096 62.6363L25.8528 62.6753L20.4089 65.7494C20.0746 65.9398 20.0746 66.2449 20.4089 66.4032L25.8528 69.4819C26.2348 69.7182 26.5555 70.0463 26.7851 70.4432L29.7618 76.0637C29.9437 76.4079 30.2393 76.4079 30.3916 76.0637L32.8134 71.4939C29.805 69.6861 27.4514 66.69 25.9096 62.6386V62.6363Z" fill="black"/>
<path d="M50.3305 27.552C50.1482 27.5536 49.9675 27.5174 49.7997 27.4456C49.6319 27.3738 49.4805 27.2679 49.355 27.1344C49.1028 26.8576 48.9629 26.4953 48.9629 26.1193C48.9629 25.7433 49.1028 25.381 49.355 25.1041C49.4807 24.9704 49.6325 24.8643 49.8007 24.7925C49.969 24.7206 50.1501 24.6846 50.3328 24.6866C50.5145 24.6867 50.6943 24.7237 50.8615 24.7955C51.0288 24.8672 51.1799 24.9722 51.3061 25.1041C51.5582 25.381 51.6982 25.7433 51.6982 26.1193C51.6982 26.4953 51.5582 26.8576 51.3061 27.1344C51.1814 27.2616 51.0351 27.3649 50.874 27.4395C50.702 27.5125 50.5172 27.55 50.3305 27.5497V27.552ZM50.3305 27.2767C50.4749 27.276 50.6176 27.2463 50.7504 27.1891C50.8832 27.132 51.0033 27.0487 51.1037 26.944C51.2965 26.7141 51.4023 26.4227 51.4023 26.1216C51.4023 25.8204 51.2965 25.529 51.1037 25.2991C51.0029 25.1954 50.8826 25.1129 50.7498 25.0566C50.6171 25.0004 50.4745 24.9714 50.3305 24.9714C50.1865 24.9714 50.044 25.0004 49.9112 25.0566C49.7784 25.1129 49.6582 25.1954 49.5574 25.2991C49.4599 25.4081 49.3829 25.534 49.33 25.6708C49.221 25.9612 49.221 26.2819 49.33 26.5724C49.3823 26.71 49.4596 26.8362 49.5574 26.944C49.6573 27.0493 49.7773 27.1331 49.9102 27.1902C50.0431 27.2474 50.1861 27.2768 50.3305 27.2767V27.2767ZM49.853 25.384H50.3874C50.4647 25.384 50.542 25.3978 50.6148 25.423C50.6701 25.4498 50.7208 25.4855 50.7649 25.5285C50.8079 25.564 50.839 25.6121 50.8535 25.6662C50.8717 25.7121 50.8831 25.7625 50.8854 25.8153C50.8854 25.9048 50.8604 25.992 50.8172 26.0677C50.7674 26.1461 50.6941 26.2064 50.6079 26.2397L50.949 26.8339H50.6534L50.3351 26.2718H50.1168V26.8339H49.853V25.384V25.384ZM50.376 26.0355C50.4086 26.0386 50.4414 26.0351 50.4726 26.0252C50.5039 26.0154 50.5329 25.9994 50.5579 25.9782C50.595 25.9299 50.6128 25.8693 50.6079 25.8084C50.6101 25.7798 50.6062 25.7511 50.5964 25.7242C50.5866 25.6973 50.5711 25.6728 50.5511 25.6524C50.4962 25.6132 50.4294 25.5945 50.3624 25.5997H50.1168V26.0355H50.376Z" fill="black"/>
</svg>
