<svg width="156" height="156" viewBox="0 0 156 156" fill="none" xmlns="http://www.w3.org/2000/svg">
<path fill-rule="evenodd" clip-rule="evenodd" d="M156 78C156 121.078 121.078 156 78 156C34.9219 156 0 121.078 0 78C0 34.9218 34.9219 0 78 0C121.078 0 156 34.9218 156 78ZM78 94.001C86.2842 94.001 93 87.2853 93 79.001C93 70.7167 86.2842 64.001 78 64.001C69.7158 64.001 63 70.7167 63 79.001C63 87.2853 69.7158 94.001 78 94.001ZM107.792 51.001H111C117.6 51.001 123 56.399 123 63.001V102.001C123 108.601 117.6 114.001 111 114.001H45C38.4004 114.001 33 108.601 33 102.001V63.001C33 56.399 38.4004 51.001 45 51.001H48.208H50.1943C52.834 51.001 55.7236 48.967 56.6182 46.483L58.4033 41.518C59.2959 39.033 62.1885 37 64.8271 37H91.1729C93.8135 37 96.7031 39.034 97.5977 41.518L99.3818 46.483C100.276 48.968 103.166 51.001 105.807 51.001H107.792ZM55.5 79.001C55.5 91.429 65.5742 101.501 78 101.501C90.4277 101.501 100.5 91.429 100.5 79.001C100.5 66.573 90.4277 56.501 78 56.501C65.5742 56.501 55.5 66.573 55.5 79.001ZM110.5 68.501C111.881 68.501 113 67.382 113 66.001V63.501C113 62.12 111.881 61.001 110.5 61.001H108C106.619 61.001 105.5 62.12 105.5 63.501V66.001C105.5 67.382 106.619 68.501 108 68.501H110.5Z" fill="white"/>
</svg>
