<svg width="32" height="28" viewBox="0 0 32 28" fill="none" xmlns="http://www.w3.org/2000/svg">
<path d="M3.19336 3.22701L3.19338 3.22699C4.64863 1.74002 6.5782 1 8.51512 1C10.4521 1 12.3808 1.73983 13.8362 3.22688L13.837 3.22766L15.2852 4.70414L15.996 5.42892L16.71 4.70718L18.1582 3.24324L18.1619 3.23944C21.0764 0.261742 25.8911 0.261913 28.8055 3.23944C31.7315 6.22891 31.7315 11.0254 28.8055 14.0151C26.8313 16.0321 24.8573 18.0496 22.8832 20.0671C20.6453 22.3544 18.4073 24.6416 16.1692 26.9281L16.1685 26.9288C16.1271 26.9712 16.0641 26.9999 15.993 26.9999C15.919 26.9999 15.8579 26.9703 15.82 26.9312L15.8177 26.9289L3.1941 14.0035L3.19401 14.0034C0.269673 11.01 0.26787 6.2161 3.19336 3.22701Z" stroke="black" stroke-width="2"/>
</svg>
