<?xml version="1.0" encoding="UTF-8"?>
<svg width="25px" height="25px" viewBox="0 0 25 25" version="1.1" xmlns="http://www.w3.org/2000/svg" xmlns:xlink="http://www.w3.org/1999/xlink">
    <!-- Generator: Sketch 61.2 (89653) - https://sketch.com -->
    <title>insta icon</title>
    <desc>Created with Sketch.</desc>
    <g id="Design-System" stroke="none" stroke-width="1" fill="none" fill-rule="evenodd">
        <g id="roadmap1.0.2" transform="translate(-918.000000, -1012.000000)" fill="#000000" fill-rule="nonzero">
            <g id="Footer" transform="translate(76.000000, 858.000000)">
                <g id="industry-links" transform="translate(842.000000, 24.000000)">
                    <path d="M12.5,139.523438 C10.8562353,139.524054 9.52414281,140.856979 9.52455357,142.500744 C9.52496452,144.144508 10.8577232,145.476768 12.501488,145.476562 C14.1452527,145.476357 15.4776786,144.143765 15.4776786,142.5 C15.4764469,140.856165 14.1438357,139.524053 12.5,139.523438 L12.5,139.523438 Z M19.4592634,137.235491 C19.1529678,136.459263 18.5385051,135.8448 17.7622768,135.538504 C16.5904018,135.075893 13.8002232,135.179688 12.5,135.179688 C11.1997768,135.179688 8.41238839,135.071987 7.23716518,135.538504 C6.46093689,135.8448 5.8464742,136.459263 5.54017857,137.235491 C5.078125,138.407366 5.18136161,141.200335 5.18136161,142.499442 C5.18136161,143.798549 5.078125,146.58817 5.54241071,147.763951 C5.84870634,148.540179 6.46316903,149.154642 7.23939732,149.460938 C8.41127232,149.923549 11.2014509,149.819754 12.5022321,149.819754 C13.8030134,149.819754 16.5892857,149.927455 17.7645089,149.460938 C18.5407372,149.154642 19.1551999,148.540179 19.4614955,147.763951 C19.9274554,146.592076 19.8203125,143.799107 19.8203125,142.5 C19.8203125,141.200893 19.9274554,138.41183 19.4614955,137.236049 L19.4592634,137.235491 Z M12.5,147.075896 C9.97280416,147.075896 7.92410714,145.027196 7.92410714,142.5 C7.92410714,139.972804 9.97280416,137.924107 12.5,137.924107 C15.0271958,137.924107 17.0758963,139.972804 17.0758963,142.5 C17.0773761,143.714056 16.5957508,144.878815 15.7372827,145.737283 C14.8788146,146.595751 13.7140563,147.077376 12.5,147.075896 L12.5,147.075896 Z M17.2645089,138.800223 C16.83246,138.800449 16.442828,138.540363 16.2773336,138.141266 C16.1118392,137.74217 16.2030818,137.282678 16.5085067,136.977094 C16.8139316,136.671509 17.2733758,136.580026 17.6725586,136.745312 C18.0717413,136.910598 18.3320406,137.300094 18.3320406,137.732143 C18.3332181,138.015499 18.2215245,138.287666 18.0216312,138.488501 C17.8217379,138.689337 17.5501001,138.802309 17.2667411,138.802455 L17.2645089,138.800223 Z M22.3214286,130 L2.67857143,130 C1.19923728,130 0,131.199237 0,132.678571 L0,152.321429 C0,153.800763 1.19923728,155 2.67857143,155 L22.3214286,155 C23.8007627,155 25,153.800763 25,152.321429 L25,132.678571 C25,131.199237 23.8007627,130 22.3214286,130 L22.3214286,130 Z M21.3660714,146.183036 C21.2940848,147.613281 20.9676339,148.88058 19.9235491,149.921875 C18.8794643,150.96317 17.6132812,151.296317 16.1847098,151.364397 C14.7109375,151.447545 10.2924107,151.447545 8.81863839,151.364397 C7.38839286,151.292411 6.12555804,150.965402 5.07979911,149.921875 C4.03404018,148.878348 3.70535714,147.610491 3.63727679,146.183036 C3.55412946,144.708705 3.55412946,140.289621 3.63727679,138.816964 C3.70926339,137.386719 4.03180804,136.11942 5.07979911,135.078125 C6.12779018,134.03683 7.39397321,133.707589 8.81863839,133.639509 C10.2924107,133.556362 14.7109375,133.556362 16.1847098,133.639509 C17.6149554,133.711496 18.8816964,134.038504 19.9235491,135.082031 C20.9654018,136.125558 21.2979911,137.393415 21.3660714,138.823661 C21.4492188,140.292411 21.4492188,144.707589 21.3660714,146.183036 Z" id="insta-icon"></path>
                </g>
            </g>
        </g>
    </g>
</svg>