<?xml version="1.0" encoding="UTF-8"?>
<svg width="25px" height="25px" viewBox="0 0 25 25" version="1.1" xmlns="http://www.w3.org/2000/svg" xmlns:xlink="http://www.w3.org/1999/xlink">
    <!-- Generator: Sketch 61.2 (89653) - https://sketch.com -->
    <title>twitter icon</title>
    <desc>Created with Sketch.</desc>
    <g id="Design-System" stroke="none" stroke-width="1" fill="none" fill-rule="evenodd">
        <g id="roadmap1.0.2" transform="translate(-918.000000, -950.000000)" fill="#000000" fill-rule="nonzero">
            <g id="Footer" transform="translate(76.000000, 858.000000)">
                <g id="industry-links" transform="translate(842.000000, 24.000000)">
                    <path d="M22.3214286,68 L2.67857143,68 C1.19977679,68 0,69.1997768 0,70.6785714 L0,90.3214286 C0,91.8002232 1.19977679,93 2.67857143,93 L22.3214286,93 C23.8002232,93 25,91.8002232 25,90.3214286 L25,70.6785714 C25,69.1997768 23.8002232,68 22.3214286,68 Z M20.149375,77.4905733 C20.160625,77.6414005 20.160625,77.7976145 20.160625,77.9484417 C20.160625,82.6186995 16.448125,88 9.664375,88 C7.571875,88 5.63125,87.4182378 4,86.416314 C4.298125,86.4486341 4.585,86.4594075 4.88875,86.4594075 C6.615625,86.4594075 8.201875,85.899192 9.4675,84.9511351 C7.8475,84.9188149 6.48625,83.9007311 6.019375,82.5001924 C6.5875,82.5809927 7.099375,82.5809927 7.684375,82.4355521 C5.996875,82.1069642 4.73125,80.6848788 4.73125,78.9665256 L4.73125,78.9234321 C5.220625,79.1873798 5.794375,79.3489804 6.39625,79.3705271 C5.36847709,78.715849 4.75172916,77.6114736 4.75375,76.4293959 C4.75375,75.7722201 4.93375,75.1689111 5.254375,74.6464025 C7.07125,76.790304 9.799375,78.1908426 12.859375,78.3416699 C12.33625,75.9445941 14.209375,74 16.459375,74 C17.5225,74 18.47875,74.4255483 19.15375,75.1150442 C19.98625,74.964217 20.785,74.6679492 21.49375,74.2639477 C21.218125,75.0827241 20.63875,75.7722201 19.87375,76.2085417 C20.61625,76.1331281 21.33625,75.9338207 22,75.6590997 C21.499375,76.3647557 20.869375,76.9896114 20.149375,77.4905733 L20.149375,77.4905733 Z" id="twitter-icon"></path>
                </g>
            </g>
        </g>
    </g>
</svg>